<svg width="32" height="32" viewBox="0 0 32 32" fill="none" xmlns="http://www.w3.org/2000/svg">
<rect width="32" height="32" rx="4" fill="#FF9900"/>
<g clip-path="url(#clip0_88_27613)">
<path d="M13.5624 15.2588L4.72492 24.0963C4.49247 24.3284 4.30808 24.6042 4.18227 24.9077C4.05646 25.2112 3.9917 25.5365 3.9917 25.865C3.9917 26.1936 4.05646 26.5189 4.18227 26.8224C4.30808 27.1259 4.49247 27.4016 4.72492 27.6338C5.19374 28.1024 5.82951 28.3657 6.49242 28.3657C7.15533 28.3657 7.7911 28.1024 8.25992 27.6338L17.0974 18.7938M22.4912 19.25L27.3387 24.0975C27.8073 24.5663 28.0706 25.2021 28.0706 25.865C28.0706 26.5279 27.8073 27.1637 27.3387 27.6325C26.8698 28.1012 26.2341 28.3645 25.5712 28.3645C24.9083 28.3645 24.2725 28.1012 23.8037 27.6325L16.0424 19.8725M9.41617 9.38001L6.76242 10.2625L4.11242 5.84376L5.87992 4.07626L10.2999 6.72751L9.41617 9.38001ZM9.41617 9.38001L12.9537 12.9175" stroke="black" stroke-width="1.875" stroke-linecap="round" stroke-linejoin="round"/>
<path d="M13.5623 15.2587C12.5073 12.5675 12.7136 9.03623 14.8886 6.86123C17.0636 4.68623 21.0761 4.20998 23.2848 5.53623L19.4848 9.33623L19.1311 13.225L23.0198 12.8725L26.8198 9.07123C28.1473 11.2812 27.6698 15.2937 25.4948 17.4675C23.3198 19.6425 19.7898 19.8487 17.0986 18.7937" stroke="black" stroke-width="1.875" stroke-linecap="round" stroke-linejoin="round"/>
</g>
<defs>
<clipPath id="clip0_88_27613">
<rect width="30" height="30" fill="white" transform="translate(1 2)"/>
</clipPath>
</defs>
</svg>
