<svg width="16" height="16" viewBox="0 0 16 16" fill="none" xmlns="http://www.w3.org/2000/svg">
<path d="M7.39991 14.6668C7.33324 14.6668 7.19991 14.6668 7.13324 14.6001C6.86657 14.4668 6.73324 14.2001 6.73324 13.9335L7.26657 9.86679H2.66657C2.39991 9.86679 2.19991 9.73346 2.06657 9.46679C1.93324 9.20012 1.99991 8.93346 2.13324 8.73346L8.06658 1.53346C8.26657 1.33346 8.59991 1.20012 8.86657 1.33346C9.13324 1.46679 9.26657 1.73346 9.26657 2.00012L8.73324 6.06679H13.3332C13.5999 6.06679 13.7999 6.20012 13.9332 6.46679C14.0666 6.73346 13.9999 7.00012 13.8666 7.20012L7.93324 14.4001C7.79991 14.6001 7.59991 14.6668 7.39991 14.6668ZM4.06657 8.53346H7.99991C8.19991 8.53346 8.39991 8.60012 8.46657 8.73346C8.59991 8.86679 8.66657 9.06679 8.59991 9.26679L8.26657 11.8001L11.8666 7.40012H7.99991C7.79991 7.40012 7.59991 7.33346 7.53324 7.20012C7.39991 7.06679 7.33324 6.86679 7.39991 6.66679L7.73324 4.13346L4.06657 8.53346Z" fill="black" fill-opacity="0.63"/>
</svg>
