<svg width="20" height="20" viewBox="0 0 20 20" fill="none" xmlns="http://www.w3.org/2000/svg">
<path d="M10 3.3335C8.6815 3.3335 7.39257 3.72449 6.29624 4.45703C5.19991 5.18957 4.34543 6.23077 3.84085 7.44894C3.33626 8.66711 3.20424 10.0076 3.46148 11.3008C3.71871 12.594 4.35365 13.7819 5.286 14.7142C6.21835 15.6466 7.40624 16.2815 8.69944 16.5387C9.99265 16.796 11.3331 16.6639 12.5513 16.1594C13.7694 15.6548 14.8106 14.8003 15.5432 13.704C16.2757 12.6076 16.6667 11.3187 16.6667 10.0002C16.6667 9.12468 16.4943 8.25778 16.1592 7.44894C15.8242 6.6401 15.3331 5.90517 14.7141 5.28612C14.095 4.66706 13.3601 4.176 12.5513 3.84097C11.7424 3.50593 10.8755 3.3335 10 3.3335ZM10 15.3335C8.94521 15.3335 7.91406 15.0207 7.037 14.4347C6.15994 13.8486 5.47635 13.0157 5.07269 12.0411C4.66902 11.0666 4.5634 9.99425 4.76919 8.95968C4.97498 7.92512 5.48293 6.97481 6.22881 6.22893C6.97469 5.48305 7.925 4.9751 8.95956 4.76931C9.99413 4.56352 11.0665 4.66914 12.041 5.07281C13.0156 5.47647 13.8485 6.16006 14.4345 7.03712C15.0206 7.91418 15.3334 8.94533 15.3334 10.0002C15.3334 11.4147 14.7715 12.7712 13.7713 13.7714C12.7711 14.7716 11.4145 15.3335 10 15.3335ZM12.7734 11.7868C12.8219 11.7134 12.8554 11.6311 12.8719 11.5447C12.8884 11.4582 12.8877 11.3694 12.8697 11.2832C12.8518 11.1971 12.8169 11.1153 12.7672 11.0427C12.7175 10.9701 12.6539 10.9081 12.58 10.8602L10.6667 9.60683V6.62683C10.6667 6.45002 10.5965 6.28045 10.4714 6.15542C10.3464 6.0304 10.1769 5.96016 10 5.96016C9.82323 5.96016 9.65366 6.0304 9.52864 6.15542C9.40362 6.28045 9.33338 6.45002 9.33338 6.62683V10.3268L11.86 12.0002C11.9344 12.0467 12.0172 12.0781 12.1038 12.0926C12.1903 12.1071 12.2789 12.1043 12.3643 12.0845C12.4498 12.0647 12.5305 12.0282 12.6019 11.9771C12.6732 11.926 12.7337 11.8614 12.78 11.7868H12.7734Z" fill="black" fill-opacity="0.63"/>
</svg>
