<svg width="16" height="16" viewBox="0 0 16 16" fill="none" xmlns="http://www.w3.org/2000/svg">
<path d="M6.00765 12.4693L4.80735 12.0025L4.3339 10.8088C4.30056 10.7355 4.2272 10.6822 4.14718 10.6822C4.06716 10.6822 3.98714 10.7355 3.96047 10.8088L3.48702 12.0025L2.28672 12.4693C2.2067 12.5026 2.16002 12.576 2.16002 12.656C2.16002 12.736 2.21337 12.8093 2.28672 12.8427L3.48702 13.3095L3.96047 14.5031C3.99381 14.5765 4.06716 14.6298 4.14718 14.6298C4.2272 14.6298 4.30722 14.5765 4.3339 14.5031L4.80735 13.3095L6.00765 12.8427C6.08767 12.8093 6.13435 12.736 6.13435 12.656C6.13435 12.576 6.081 12.5026 6.00765 12.4693Z" fill="black"/>
<path d="M6.40108 3.66039L4.80735 3.04024L4.18053 1.46651C4.14052 1.36649 4.04049 1.2998 3.9338 1.2998C3.8271 1.2998 3.72708 1.36649 3.68707 1.46651L3.06024 3.04024L1.46651 3.66039C1.36649 3.7004 1.2998 3.80043 1.2998 3.90712C1.2998 4.01382 1.36649 4.11384 1.46651 4.15385L3.06024 4.77401L3.68707 6.34773C3.72708 6.44776 3.8271 6.51444 3.9338 6.51444C4.04049 6.51444 4.14052 6.44776 4.18053 6.34773L4.80735 4.77401L6.40108 4.15385C6.50111 4.11384 6.56779 4.01382 6.56779 3.90712C6.56779 3.80043 6.50111 3.7004 6.40108 3.66039Z" fill="black"/>
<path d="M8.92838 5.70757L9.46851 7.08125C9.60855 7.428 9.88195 7.70807 10.2354 7.84811L11.609 8.38824C11.7291 8.43492 11.7291 8.6083 11.609 8.66165L10.2354 9.20178C9.88862 9.34181 9.60855 9.61522 9.46851 9.96864L8.92838 11.3423C8.8817 11.4623 8.70832 11.4623 8.65498 11.3423L8.11484 9.96864C7.97481 9.62189 7.70141 9.34181 7.34798 9.20178L5.97431 8.66165C5.85428 8.61497 5.85428 8.44159 5.97431 8.38824L7.34798 7.84811C7.69474 7.70807 7.97481 7.43467 8.11484 7.08125L8.65498 5.70757C8.70166 5.58754 8.87503 5.58754 8.92838 5.70757ZM8.79501 2.68682C8.55495 2.68682 8.3349 2.83352 8.24154 3.06024L6.84786 6.58779L3.32031 7.98147C3.09359 8.06816 2.94688 8.28822 2.94688 8.53495C2.94688 8.78167 3.09359 8.99506 3.32031 9.08842L6.84786 10.4821L8.24154 14.0096C8.32823 14.2364 8.54828 14.3831 8.79501 14.3831C9.04174 14.3831 9.25513 14.2364 9.34848 14.0096L10.7422 10.4821L14.2697 9.08842C14.4964 9.00173 14.6431 8.78167 14.6431 8.53495C14.6431 8.28822 14.4964 8.07483 14.2697 7.98147L10.7422 6.58779L9.34848 3.06024C9.2618 2.83352 9.04174 2.68682 8.79501 2.68682Z" fill="black"/>
</svg>
