<svg width="16" height="16" viewBox="0 0 16 16" fill="none" xmlns="http://www.w3.org/2000/svg">
<path d="M3.90625 6.82617C4.27292 6.82617 4.57324 7.1265 4.57324 7.49316V13.2734C4.57339 13.68 4.90007 14.0068 5.30664 14.0068C5.71321 14.0068 6.03989 13.6733 6.04004 13.2734V10.9062C6.04017 9.76643 6.96663 8.83996 8.10645 8.83984H10.3135L9.97363 8.41309C9.74697 8.12642 9.80025 7.70616 10.0869 7.47949C10.3734 7.25324 10.7929 7.30662 11.0195 7.59277H11.0137L12.2529 9.17285C12.4463 9.41952 12.4471 9.76684 12.2471 10.0068L11.0068 11.5127C10.8802 11.6794 10.6865 11.7598 10.4932 11.7598C10.3466 11.7597 10.1999 11.7064 10.0732 11.6064C9.78664 11.3731 9.74716 10.9527 9.98047 10.666L10.3867 10.1729H8.10645C7.69996 10.173 7.37318 10.5064 7.37305 10.9062V13.2734C7.3729 14.4133 6.44655 15.3398 5.30664 15.3398C4.16674 15.3398 3.24038 14.4133 3.24023 13.2734V7.49316C3.24023 7.12663 3.53977 6.82639 3.90625 6.82617ZM6.72656 3.17969C6.83323 3.17969 6.9268 3.24668 6.9668 3.34668L7.57324 4.89355L9.12012 5.50684C9.21327 5.54686 9.28017 5.64644 9.28027 5.75293C9.28027 5.85956 9.22006 5.95314 9.12012 5.99316L7.57324 6.60645L6.9668 8.15332C6.92678 8.25328 6.8332 8.32031 6.72656 8.32031C6.61994 8.32027 6.52631 8.25329 6.48633 8.15332L5.87988 6.60645L4.33301 5.99316C4.23983 5.95974 4.17383 5.86614 4.17383 5.75293C4.17392 5.63986 4.23332 5.54689 4.33301 5.50684L5.87988 4.89355L6.48633 3.34668C6.52631 3.24671 6.61994 3.17973 6.72656 3.17969ZM12.46 1.33301C13.5998 1.33301 14.5261 2.25961 14.5264 3.39941V4.35352C14.5262 5.49336 13.5998 6.41992 12.46 6.41992H10.5537C10.187 6.41992 9.88672 6.1196 9.88672 5.75293C9.88685 5.38637 10.1871 5.08691 10.5537 5.08691H12.46C12.8665 5.08691 13.1932 4.75336 13.1934 4.35352V3.39941C13.1931 2.99294 12.8598 2.66699 12.46 2.66699H4.06641C3.66 2.66713 3.33324 2.99969 3.33301 3.39941V4.35352C3.33307 4.49339 3.37302 4.62699 3.44629 4.74023C3.63953 5.05355 3.54669 5.46685 3.2334 5.66016C2.92008 5.85341 2.50679 5.75959 2.31348 5.44629C2.10685 5.11964 2 4.74601 2 4.35938V3.40625C2.00014 2.26645 2.92661 1.33998 4.06641 1.33984H12.4531L12.46 1.33301Z" fill="black" fill-opacity="0.63"/>
</svg>
