<svg width="16" height="16" viewBox="0 0 16 16" fill="none" xmlns="http://www.w3.org/2000/svg">
<path d="M7.66667 1C6.34813 1 5.0592 1.39099 3.96287 2.12354C2.86654 2.85608 2.01206 3.89727 1.50747 5.11544C1.00289 6.33362 0.870866 7.67406 1.1281 8.96727C1.38534 10.2605 2.02027 11.4484 2.95262 12.3807C3.88497 13.3131 5.07286 13.948 6.36607 14.2052C7.65927 14.4625 8.99972 14.3304 10.2179 13.8259C11.4361 13.3213 12.4773 12.4668 13.2098 11.3705C13.9423 10.2741 14.3333 8.98521 14.3333 7.66667C14.3333 6.79119 14.1609 5.92428 13.8259 5.11544C13.4908 4.30661 12.9998 3.57168 12.3807 2.95262C11.7617 2.33356 11.0267 1.8425 10.2179 1.50747C9.40906 1.17244 8.54215 1 7.66667 1ZM12.9533 7H10.6933C10.5545 5.41959 10.0352 3.89625 9.18 2.56C10.1718 2.85435 11.0566 3.43081 11.7266 4.21916C12.3966 5.0075 12.8228 5.97369 12.9533 7ZM5.97334 8.33333H9.36C9.19995 9.89265 8.61415 11.3779 7.66667 12.6267C6.71585 11.3798 6.12966 9.89356 5.97334 8.33333ZM5.97334 7C6.13339 5.44068 6.71919 3.95542 7.66667 2.70667C8.61657 3.95405 9.20266 5.44003 9.36 7H5.97334ZM6.15334 2.56C5.29804 3.89571 4.78092 5.41962 4.64667 7H2.38C2.51054 5.97369 2.93676 5.0075 3.60674 4.21916C4.27671 3.43081 5.16151 2.85435 6.15334 2.56ZM2.38 8.33333H4.64667C4.78012 9.91596 5.29727 11.4422 6.15334 12.78C5.16057 12.4852 4.27512 11.9077 3.60506 11.1181C2.935 10.3285 2.50933 9.36084 2.38 8.33333ZM9.18 12.78C10.0344 11.4414 10.5514 9.91558 10.6867 8.33333H12.9533C12.824 9.36084 12.3983 10.3285 11.7283 11.1181C11.0582 11.9077 10.1728 12.4852 9.18 12.78Z" fill="black" fill-opacity="0.63"/>
</svg>
