<svg width="16" height="16" viewBox="0 0 16 16" fill="none" xmlns="http://www.w3.org/2000/svg">
<path d="M14.6666 2.00021V6.00021C14.6666 6.17702 14.5963 6.34659 14.4713 6.47162C14.3463 6.59664 14.1767 6.66688 13.9999 6.66688C13.8231 6.66688 13.6535 6.59664 13.5285 6.47162C13.4035 6.34659 13.3333 6.17702 13.3333 6.00021V3.60688L9.80659 7.13355C9.68193 7.25908 9.51252 7.32996 9.33561 7.33058C9.1587 7.33121 8.98879 7.26153 8.86325 7.13688C8.73772 7.01223 8.66684 6.84281 8.66621 6.6659C8.66559 6.48899 8.73527 6.31908 8.85992 6.19355L12.3933 2.66688H9.99992C9.82311 2.66688 9.65354 2.59664 9.52851 2.47162C9.40349 2.34659 9.33325 2.17702 9.33325 2.00021C9.33325 1.8234 9.40349 1.65383 9.52851 1.52881C9.65354 1.40378 9.82311 1.33355 9.99992 1.33355H13.9999C14.0866 1.33248 14.1726 1.34834 14.2533 1.38021C14.376 1.43066 14.481 1.51662 14.5546 1.62707C14.6283 1.73753 14.6673 1.86746 14.6666 2.00021ZM6.19325 8.86021L2.66659 12.3869V10.0002C2.66659 9.8234 2.59635 9.65383 2.47132 9.52881C2.3463 9.40378 2.17673 9.33355 1.99992 9.33355C1.82311 9.33355 1.65354 9.40378 1.52851 9.52881C1.40349 9.65383 1.33325 9.8234 1.33325 10.0002V14.0002C1.33325 14.177 1.40349 14.3466 1.52851 14.4716C1.65354 14.5966 1.82311 14.6669 1.99992 14.6669H5.99992C6.17673 14.6669 6.3463 14.5966 6.47132 14.4716C6.59635 14.3466 6.66659 14.177 6.66659 14.0002C6.66659 13.8234 6.59635 13.6538 6.47132 13.5288C6.3463 13.4038 6.17673 13.3335 5.99992 13.3335H3.60659L7.13992 9.80021C7.26409 9.6753 7.33378 9.50634 7.33378 9.33021C7.33378 9.15409 7.26409 8.98512 7.13992 8.86021C7.07794 8.79773 7.00421 8.74813 6.92297 8.71428C6.84173 8.68044 6.75459 8.66301 6.66659 8.66301C6.57858 8.66301 6.49144 8.68044 6.4102 8.71428C6.32896 8.74813 6.25523 8.79773 6.19325 8.86021Z" fill="black" fill-opacity="0.63"/>
</svg>
