<svg width="16" height="16" viewBox="0 0 16 16" fill="none" xmlns="http://www.w3.org/2000/svg">
<path d="M7.28005 9.0798C7.31421 9.15995 7.33233 9.24602 7.33338 9.33314V13.3331C7.33338 13.5099 7.26314 13.6795 7.13812 13.8045C7.01309 13.9296 6.84352 13.9998 6.66671 13.9998C6.4899 13.9998 6.32033 13.9296 6.19531 13.8045C6.07028 13.6795 6.00005 13.5099 6.00005 13.3331V10.9398L2.48005 14.4665C2.41807 14.529 2.34434 14.5786 2.2631 14.6124C2.18186 14.6462 2.09472 14.6637 2.00671 14.6637C1.91871 14.6637 1.83157 14.6462 1.75033 14.6124C1.66909 14.5786 1.59536 14.529 1.53338 14.4665C1.47089 14.4045 1.4213 14.3308 1.38745 14.2495C1.35361 14.1683 1.33618 14.0811 1.33618 13.9931C1.33618 13.9051 1.35361 13.818 1.38745 13.7368C1.4213 13.6555 1.47089 13.5818 1.53338 13.5198L5.06005 9.9998H2.66671C2.4899 9.9998 2.32033 9.92956 2.19531 9.80454C2.07029 9.67952 2.00005 9.50995 2.00005 9.33314C2.00005 9.15632 2.07029 8.98676 2.19531 8.86173C2.32033 8.73671 2.4899 8.66647 2.66671 8.66647H6.66671C6.75339 8.66541 6.83944 8.68126 6.92005 8.71314C7.00133 8.7474 7.075 8.79745 7.13679 8.86039C7.19859 8.92333 7.24728 8.99791 7.28005 9.0798ZM14.4667 1.53314C14.4047 1.47065 14.331 1.42105 14.2498 1.38721C14.1685 1.35336 14.0814 1.33594 13.9934 1.33594C13.9054 1.33594 13.8182 1.35336 13.737 1.38721C13.6558 1.42105 13.582 1.47065 13.52 1.53314L10 5.0598V2.66647C10 2.48966 9.92981 2.32009 9.80478 2.19507C9.67976 2.07004 9.51019 1.9998 9.33338 1.9998C9.15657 1.9998 8.987 2.07004 8.86198 2.19507C8.73695 2.32009 8.66671 2.48966 8.66671 2.66647V6.66647C8.66565 6.75314 8.6815 6.8392 8.71338 6.9198C8.74764 7.00108 8.79769 7.07475 8.86063 7.13655C8.92357 7.19835 8.99815 7.24704 9.08005 7.2798C9.15917 7.31712 9.24593 7.33539 9.33338 7.33314H13.3334C13.5102 7.33314 13.6798 7.2629 13.8048 7.13787C13.9298 7.01285 14 6.84328 14 6.66647C14 6.48966 13.9298 6.32009 13.8048 6.19506C13.6798 6.07004 13.5102 5.9998 13.3334 5.9998H10.94L14.4667 2.4798C14.5292 2.41783 14.5788 2.34409 14.6126 2.26285C14.6465 2.18161 14.6639 2.09448 14.6639 2.00647C14.6639 1.91846 14.6465 1.83132 14.6126 1.75009C14.5788 1.66885 14.5292 1.59511 14.4667 1.53314V1.53314Z" fill="black" fill-opacity="0.63"/>
</svg>
