<svg width="16" height="16" viewBox="0 0 16 16" fill="none" xmlns="http://www.w3.org/2000/svg">
<path d="M13.8067 6.01886L11.9805 5.30571L11.2607 3.49949C11.214 3.38619 11.1007 3.30621 10.9741 3.30621C10.8475 3.30621 10.7341 3.37952 10.6875 3.49949L9.96767 5.30571L8.14147 6.01886C8.0215 6.06552 7.94818 6.17882 7.94818 6.29879C7.94818 6.41876 8.02816 6.53207 8.14147 6.57872L9.96767 7.29188L10.6875 9.09809C10.7341 9.2114 10.8475 9.29138 10.9741 9.29138C11.1007 9.29138 11.214 9.21806 11.2607 9.09809L11.9805 7.29188L13.8067 6.57872C13.9267 6.53207 14 6.41876 14 6.29879C14 6.17882 13.92 6.06552 13.8067 6.01886Z" fill="black" fill-opacity="0.63"/>
<path d="M13.2641 7.9116C12.8975 7.9116 12.5976 8.21153 12.5976 8.5781V9.99775H5.16612C4.87286 9.99775 4.59293 10.0577 4.333 10.1644V3.16612C4.333 2.70624 4.70624 2.333 5.16612 2.333H12.5976V3.81263C12.5976 4.1792 12.8975 4.47913 13.2641 4.47913C13.6307 4.47913 13.9306 4.1792 13.9306 3.81263V1.6665C13.9306 1.29992 13.6307 1 13.2641 1H5.16612C3.97309 1 3 1.97309 3 3.16612V12.1639C3 13.3569 3.97309 14.33 5.16612 14.33H13.2641C13.5707 14.33 13.8306 14.1167 13.9106 13.8235C13.9839 13.5235 13.844 13.2169 13.5707 13.0703C13.2308 12.8904 13.0242 12.5504 13.0242 12.1572C13.0242 11.7706 13.2308 11.4307 13.5707 11.2508C13.6307 11.2174 13.6773 11.1841 13.724 11.1375C13.7306 11.1308 13.7373 11.1175 13.744 11.1108C13.7906 11.0641 13.824 11.0108 13.8506 10.9508C13.8573 10.9309 13.8706 10.9109 13.8773 10.8909C13.9039 10.8175 13.9239 10.7442 13.9239 10.6576V8.57144C13.9239 8.20486 13.624 7.90494 13.2574 7.90494L13.2641 7.9116ZM5.16612 12.997C4.70624 12.997 4.333 12.6238 4.333 12.1639C4.333 11.704 4.70624 11.3307 5.16612 11.3307H11.8578C11.7578 11.5907 11.6912 11.8706 11.6912 12.1572C11.6912 12.4505 11.7445 12.7304 11.8445 12.997H5.16612Z" fill="black" fill-opacity="0.63"/>
</svg>
