<svg width="16" height="16" viewBox="0 0 16 16" fill="none" xmlns="http://www.w3.org/2000/svg">
<path d="M14.6601 1.96619C14.6601 1.90619 14.6467 1.84619 14.6267 1.78619C14.6201 1.76619 14.6134 1.74619 14.6001 1.72619C14.5667 1.65286 14.5267 1.58619 14.4667 1.53286C14.4067 1.47286 14.3401 1.43286 14.2734 1.40619C14.2534 1.39286 14.2267 1.38619 14.2067 1.37952C14.1534 1.35952 14.1001 1.35286 14.0401 1.34619C14.0201 1.34619 14.0001 1.34619 13.9801 1.34619C13.9134 1.34619 13.8467 1.35952 13.7801 1.37952L1.78008 5.57286C1.52008 5.66619 1.34675 5.89953 1.33342 6.17286C1.32008 6.44619 1.48008 6.69953 1.72675 6.81286L6.89342 9.10619L9.18675 14.2729C9.29342 14.5129 9.53341 14.6662 9.79342 14.6662C9.80008 14.6662 9.81342 14.6662 9.82008 14.6662C10.0934 14.6529 10.3334 14.4795 10.4201 14.2195L14.6267 2.21952C14.6534 2.15286 14.6601 2.07952 14.6601 2.01286C14.6601 1.99286 14.6601 1.97952 14.6601 1.95952V1.96619ZM11.4667 3.59952L7.25342 7.81286L3.80675 6.27952L11.4601 3.59952H11.4667ZM9.72675 12.1995L8.19342 8.75286L12.4067 4.53952L9.72675 12.1929V12.1995Z" fill="white"/>
</svg>
